# xmcd
# 
# Track frame offsets:
#     150
#     11539
#     24760
#     38305
#     52823
#     71433
#     84691
#     99293
#     111256
#     124820
#     138961
#     152535
#     166872
#     195469
#     210949
#     227082
# 
# Disc length: 3209
# 
# Revision: 0
# Processed by: cddbd v1.5.2PL0 Copyright (c) Steve Scherf et al.
# Submitted via: fre:ac v1.0.31
# 
DISCID=b20c8710
DTITLE=Sharky and Chris Schauer - Ride a Wide Circle
DYEAR=0
DGENRE=Country
TTITLE0=Master
TTITLE1=Reins of Glory
TTITLE2=Don't Fence Me In
TTITLE3=Right Outside My Window
TTITLE4=Dad-Burned Guitar
TTITLE5=Ramblings
TTITLE6=The Old Man is Dead
TTITLE7=The Good Lord's Tuggin' on my Lead Rope
TTITLE8=Sharky's Bible
TTITLE9=Alberta In The Fall
TTITLE10=Father To Father
TTITLE11=Sunset On The Sage
TTITLE12=Trail to Virtue
TTITLE13=Ride A Wide Circle
TTITLE14=Cowboy Blessing
TTITLE15=1,2,3
EXTD=
EXTT0=
EXTT1=
EXTT2=
EXTT3=
EXTT4=
EXTT5=
EXTT6=
EXTT7=
EXTT8=
EXTT9=
EXTT10=
EXTT11=
EXTT12=
EXTT13=
EXTT14=
EXTT15=
PLAYORDER=
